<svg width="16" height="16" viewBox="0 0 16 16" fill="none" xmlns="http://www.w3.org/2000/svg">
<path d="M8 0C12.4183 0 16 3.38274 16 7.55556V8.44444C16 12.6173 12.4183 16 8 16C3.58172 16 0 12.6173 0 8.44444V7.55556C0 3.38274 3.58172 0 8 0Z" fill="#EBEBEB"/>
<path d="M8.79883 11.3613L8.71094 11.7363C8.35156 11.8809 8.06445 11.9814 7.84961 12.0381C7.63477 12.0947 7.45117 12.123 7.29883 12.123C6.98633 12.123 6.75195 12.042 6.5957 11.8799C6.43945 11.7178 6.36133 11.5176 6.36133 11.2793C6.36133 11.1895 6.36914 11.0957 6.38477 10.998C6.40039 10.9004 6.42578 10.7773 6.46094 10.6289L7.08203 8.13867C7.11328 8.00195 7.14355 7.85547 7.17285 7.69922C7.20215 7.54297 7.2168 7.41016 7.2168 7.30078C7.2168 7.08203 7.18066 6.93652 7.1084 6.86426C7.03613 6.79199 6.88867 6.75586 6.66602 6.75586C6.58008 6.75586 6.46582 6.76953 6.32324 6.79688C6.18066 6.82422 6.07227 6.84766 5.99805 6.86719L6.08594 6.49219C6.39062 6.35547 6.66406 6.25391 6.90625 6.1875C7.14844 6.12109 7.33984 6.08789 7.48047 6.08789C7.80078 6.08789 8.0332 6.16406 8.17773 6.31641C8.32227 6.46875 8.39453 6.67383 8.39453 6.93164C8.39453 7.00195 8.38672 7.09766 8.37109 7.21875C8.35547 7.33984 8.33203 7.46094 8.30078 7.58203L7.67383 10.0723C7.63477 10.2246 7.60059 10.374 7.57129 10.5205C7.54199 10.667 7.52734 10.7871 7.52734 10.8809C7.52734 11.1035 7.57715 11.2559 7.67676 11.3379C7.77637 11.4199 7.9375 11.4609 8.16016 11.4609C8.23438 11.4609 8.34082 11.4512 8.47949 11.4316C8.61816 11.4121 8.72461 11.3887 8.79883 11.3613ZM9.21484 3.87305C9.21484 4.0957 9.14258 4.29004 8.99805 4.45605C8.85352 4.62207 8.67383 4.70508 8.45898 4.70508C8.25977 4.70508 8.08789 4.62598 7.94336 4.46777C7.79883 4.30957 7.72656 4.12891 7.72656 3.92578C7.72656 3.71094 7.79883 3.52344 7.94336 3.36328C8.08789 3.20312 8.25977 3.12305 8.45898 3.12305C8.68164 3.12305 8.86328 3.19824 9.00391 3.34863C9.14453 3.49902 9.21484 3.67383 9.21484 3.87305Z" fill="#B9B9BA"/>
</svg>
